# xmcd
#
# Track frame offsets:
#	150
#	19935
#	35000
#	53520
#	71450
#	91712
#	108947
#	125735
#	141602
#	161410
#	176480
#	194992
#	212845
#	233155
#	250260
#	266957
#
# Disc length: 3770 seconds
#
# Revision: 0
# Processed by: cddbd v1.5.1PL2 Copyright (c) Steve Scherf et al.
# Submitted via: audiograbber 1.83.01
#
DISCID=ef0eb810
DTITLE=Sound Choice - SC2144
DYEAR=1900
DGENRE=
TTITLE0=Alabama - Touch Me When We're Dancing
TTITLE1=Alabama - The Maker Said Take Her
TTITLE2=Alabama - Feels So Right
TTITLE3=Alabama - TLCASAP
TTITLE4=Alabama - Why Lady Why
TTITLE5=Alabama - When We Make Love
TTITLE6=Alabama - Love In The First Degree
TTITLE7=Alabama - Forty Hour Week
TTITLE8=Alabama - Touch Me When We're Dancing (Vocal)
TTITLE9=Alabama - The Maker Said Take Her (Vocal)
TTITLE10=Alabama - Feels So Right (Vocal)
TTITLE11=Alabama - TLCASAP (Vocal)
TTITLE12=Alabama - Why Lady Why (Vocal)
TTITLE13=Alabama - When We Make Love (Vocal)
TTITLE14=Alabama - Love In The First Degree (Vocal)
TTITLE15=Alabama - Forty Hour Week (Vocal)
EXTD=
EXTT0=
EXTT1=
EXTT2=
EXTT3=
EXTT4=
EXTT5=
EXTT6=
EXTT7=
EXTT8=
EXTT9=
EXTT10=
EXTT11=
EXTT12=
EXTT13=
EXTT14=
EXTT15=
PLAYORDER=
